# xmcd
#
# Track frame offsets:
#	150
#	14863
#	31828
#	46705
#	67563
#	92258
#	109595
#	131205
#	160580
#	177033
#	193858
#	209258
#	225643
#	261270
#
# Disc length: 3735 seconds
#
# Revision: 1
# Processed by: cddbd v1.5.2PL0 Copyright (c) Steve Scherf et al.
# Submitted via: EasyCDDAExtractor 2010.4.0.0
#
DISCID=ad0e950e
DTITLE=Eric Clapton - Unplugged
DYEAR=1992
DGENRE=Blues
TTITLE0=Signe
TTITLE1=Before you accuse me
TTITLE2=Hey hey
TTITLE3=Lears in heaven
TTITLE4=Lonely stranger
TTITLE5=Nobody knows you when
TTITLE6=Down and out
TTITLE7=Layla
TTITLE8=Wolkin' blues
TTITLE9=Alberta
TTITLE10=San Francisco bay blues
TTITLE11=Malted milk
TTITLE12=Old love
TTITLE13=Rolli' and tumblin'
EXTD=
EXTT0=
EXTT1=
EXTT2=
EXTT3=
EXTT4=
EXTT5=
EXTT6=
EXTT7=
EXTT8=
EXTT9=
EXTT10=
EXTT11=
EXTT12=
EXTT13=
PLAYORDER=
